<svg width="120" height="60" xmlns="http://www.w3.org/2000/svg" xmlns:xlink="http://www.w3.org/1999/xlink" overflow="hidden"><path d="M40 41.753 40 18.708 41.25 18.708 41.25 22.333C41.3976 22.1723 41.5339 22.0015 41.658 21.822 42.702 19.656 44.904 18.289 47.308 18.316 50.158 18.231 52.474 19.286 53.835 21.822 55.5923 25.0187 55.6936 28.8683 54.107 32.153 52.839 34.995 49.707 36.408 46.354 35.889 44.2338 35.7088 42.3496 34.4655 41.35 32.587L41.35 41.752ZM41.25 26.86 41.53 29.566C42.024 32.646 43.845 34.466 46.704 34.808 49.4726 35.2632 52.1771 33.6989 53.163 31.072 54.275 28.422 54.193 25.422 52.943 22.834 51.8947 20.4879 49.4191 19.12 46.875 19.481 44.4924 19.6543 42.481 21.3174 41.863 23.625 41.5968 24.6903 41.3921 25.7701 41.25 26.859ZM80.748 29.992C80.3559 33.348 77.5394 35.8951 74.161 35.949 68.919 36.213 66.459 32.732 66.068 28.715 65.7961 26.5336 66.1502 24.3198 67.089 22.332 68.4298 19.5338 71.4284 17.9261 74.501 18.358 77.4202 18.6061 79.8536 20.6935 80.543 23.541 80.8093 24.8058 81.0053 26.0845 81.13 27.371L67.363 27.371C67.108 31.013 69.065 33.941 71.839 34.647 75.294 35.497 78.247 34 79.319 30.715 79.557 29.872 79.991 29.753 80.757 29.992ZM67.353 26.205 79.667 26.205C79.59 22.325 77.174 19.505 73.897 19.473 70.197 19.413 67.514 22.12 67.353 26.205ZM83.293 30.077 84.5 30.077C84.5904 31.89 85.6877 33.4999 87.342 34.247 89.406 35.1759 91.7808 35.1133 93.793 34.077 94.9021 33.5776 95.5817 32.4392 95.495 31.226 95.559 30.0523 94.8364 28.9786 93.725 28.596 92.397 28.102 90.985 27.83 89.632 27.396 88.2241 26.9952 86.8474 26.4918 85.513 25.89 83.333 24.826 83.198 20.682 85.666 19.37 88.2337 17.9211 91.3609 17.8729 93.972 19.242 95.566 20.122 96.447 21.899 96.185 23.702L95.15 23.702C95.15 23.652 95.056 23.608 95.056 23.557 94.928 20.257 92.154 19.225 89.176 19.515 88.276 19.615 87.423 19.887 86.623 20.289 85.6374 20.7391 85.0438 21.763 85.143 22.842 85.1451 23.9216 85.8268 24.883 86.845 25.242 88.145 25.719 89.525 26.025 90.87 26.399L94.12 27.249C95.6322 27.7454 96.6815 29.1232 96.758 30.713 97.018 32.458 96.128 34.173 94.554 34.968 91.712 36.576 87.031 36.151 84.946 34.118 83.879 33.045 83.284 31.588 83.296 30.076ZM112.073 23.703 110.941 23.703C110.941 23.55 110.881 23.403 110.864 23.286 110.827 21.5372 109.57 20.0534 107.851 19.729 106.278 19.2778 104.6 19.3586 103.077 19.959 101.84 20.3129 100.985 21.4389 100.975 22.725 100.931 23.9926 101.784 25.1165 103.017 25.414L108.191 26.742C108.751 26.8762 109.302 27.0438 109.841 27.244 111.491 27.844 112.611 29.376 112.661 31.127 112.712 32.8813 111.679 34.4864 110.061 35.167 107.633 36.27 104.852 36.298 102.402 35.244 100.361 34.364 99.0844 32.3063 99.202 30.087L100.308 30.087C100.724 32.092 102.101 33.762 103.99 34.552 105.879 35.342 108.036 35.148 109.754 34.036 110.807 33.4887 111.445 32.379 111.388 31.194 111.441 30.0195 110.707 28.9527 109.592 28.581 108.264 28.087 106.852 27.824 105.499 27.381 104.083 26.9863 102.698 26.4887 101.355 25.892 99.227 24.845 99.057 20.735 101.483 19.424 104.085 17.9126 107.29 17.877 109.925 19.33 111.439 20.2336 112.277 21.946 112.061 23.696ZM37.943 35.533C37.0209 35.8817 35.9835 35.4873 35.526 34.614L31.126 28.529 30.488 27.679 25.382 34.623C24.9515 35.4584 23.9678 35.8445 23.084 35.525L29.662 26.7 23.542 18.726C24.45 18.398 25.462 18.754 25.967 19.576L30.527 25.736 35.114 19.6C35.548 18.7784 36.5289 18.4124 37.395 18.749L35.02 21.9 31.803 26.087C31.4529 26.3997 31.4225 26.937 31.7352 27.2872 31.7565 27.311 31.7791 27.3337 31.803 27.355L37.93 35.533ZM65.873 18.641 65.873 19.841C62.4727 19.618 59.5354 22.1937 59.3124 25.5939 59.2988 25.8007 59.2957 26.008 59.303 26.215 59.303 29.0177 59.303 31.8203 59.303 34.623L59.303 35.576 58.086 35.576 58.086 18.716 59.286 18.716 59.286 22.171C60.758 19.651 63.03 18.716 65.881 18.648ZM7.333 26.59 7.869 23.943C9.341 18.709 15.341 16.531 19.469 19.773 21.886 21.671 22.489 24.36 22.371 27.39L8.754 27.39C8.534 32.802 12.439 36.07 17.434 34.402 19.08 33.802 20.319 32.434 20.727 30.734 20.991 29.884 21.427 29.738 22.225 29.984 21.9554 32.0832 20.7385 33.9431 18.923 35.031 15.8861 36.6918 12.1256 36.2112 9.604 33.84 8.388 32.473 7.654 30.745 7.511 28.92 7.511 28.62 7.411 28.34 7.341 28.07 7.33433 27.5653 7.331 27.072 7.331 26.59ZM8.771 26.224 21.085 26.224C21.008 22.301 18.532 19.518 15.23 19.492 11.554 19.442 8.924 22.164 8.762 26.207Z"/></svg>