<svg width="2500" height="2500" viewBox="0 0 318 318" xmlns="http://www.w3.org/2000/svg" xmlns:xlink="http://www.w3.org/1999/xlink" overflow="hidden"><defs><mask x="0" y="0" width="318" height="318" id="b" fill="#FFFFFF"><use width="100%" height="100%" xlink:href="#a"></use></mask><path d="M0 0 318 0 318 318 0 318Z" id="a"/></defs><g fill="none" fill-rule="evenodd"><use width="100%" height="100%" xlink:href="#a" stroke="#4A4A4A" stroke-width="8" mask="url(#b)"></use><path d="M44.284 229.416C39.856 229.416 36.94 231.792 36.94 234.96 36.94 237.768 38.668 239.64 42.592 240.72 46.156 241.728 46.912 242.232 46.912 243.816 46.912 245.256 45.58 246.12 43.528 246.12 41.584 246.12 39.82 245.364 38.344 244.248L36.04 246.84C37.804 248.424 40.36 249.54 43.636 249.54 47.992 249.54 51.664 247.452 51.664 243.492 51.664 240.108 49.468 238.524 45.58 237.48 42.34 236.58 41.584 236.004 41.584 234.744 41.584 233.592 42.628 232.836 44.464 232.836 46.156 232.836 47.668 233.376 49.252 234.384L51.052 231.684C49.252 230.28 47.02 229.416 44.284 229.416ZM64.696 245.148 66.316 248.1C64.948 249.072 63.22 249.54 61.528 249.54 57.784 249.504 55.804 247.38 55.804 243.312L55.804 233.268 52.816 233.268 52.816 229.956 55.804 229.956 55.804 225.744 60.412 225.204 60.412 229.956 64.84 229.956 64.372 233.268 60.412 233.268 60.412 243.204C60.412 245.076 61.024 245.832 62.428 245.832 63.148 245.832 63.868 245.616 64.696 245.148ZM84.316 229.956 78.124 249.072C76.684 253.536 73.876 256.416 68.224 256.848L67.756 253.5C71.536 252.924 72.76 251.7 73.84 249L72.256 249 66.208 229.956 71.104 229.956 75.244 245.94 79.564 229.956ZM91.624 249.54C92.6781 249.54 93.7204 249.319 94.684 248.892L93.712 245.652C93.388 245.76 93.064 245.832 92.632 245.832 91.876 245.832 91.552 245.4 91.552 244.5L91.552 221.82 86.944 222.324 86.944 244.644C86.944 247.776 88.708 249.54 91.624 249.54ZM113.368 239.028C113.368 239.64 113.296 240.396 113.26 240.9L101.308 240.9C101.632 244.788 103.468 246.048 105.988 246.048 107.68 246.048 109.084 245.508 110.74 244.356L112.648 246.984C110.776 248.496 108.472 249.54 105.592 249.54 99.688 249.54 96.52 245.616 96.52 239.604 96.52 233.808 99.58 229.416 104.98 229.416 110.308 229.416 113.368 233.016 113.368 239.028ZM108.796 237.912 108.796 237.696C108.796 234.564 107.68 232.692 105.088 232.692 102.928 232.692 101.56 234.132 101.308 237.912ZM128.92 221.82 133.528 222.324 133.528 249 129.46 249 129.136 246.588C127.984 248.316 126.148 249.54 123.7 249.54 118.948 249.54 116.464 245.544 116.464 239.496 116.464 233.628 119.416 229.416 124.132 229.416 126.148 229.416 127.732 230.28 128.92 231.468ZM124.996 246.048C126.688 246.048 127.84 245.22 128.92 243.6L128.92 234.888C127.912 233.664 126.832 232.872 125.284 232.872 122.908 232.872 121.324 234.888 121.324 239.46 121.324 244.356 122.728 246.048 124.996 246.048ZM44.44 265.416C38.968 265.416 35.548 269.556 35.548 275.64 35.548 281.724 38.968 285.54 44.476 285.54 46.924 285.54 48.904 284.748 50.632 283.344L48.58 280.428C47.176 281.328 46.168 281.796 44.728 281.796 42.136 281.796 40.444 280.176 40.444 275.568 40.444 270.996 42.064 269.052 44.728 269.052 46.168 269.052 47.32 269.484 48.58 270.42L50.632 267.648C48.832 266.1 46.924 265.416 44.44 265.416ZM61.756 265.416C67.372 265.416 70.684 269.232 70.684 275.46 70.684 281.472 67.336 285.54 61.72 285.54 56.104 285.54 52.756 281.724 52.756 275.46 52.756 269.484 56.104 265.416 61.756 265.416ZM61.756 268.908C59.056 268.908 57.616 270.96 57.616 275.46 57.616 280.032 59.02 282.048 61.72 282.048 64.42 282.048 65.824 279.996 65.824 275.46 65.824 270.924 64.42 268.908 61.756 268.908ZM95.2 265.416C92.68 265.416 90.916 266.64 89.476 268.62 88.756 266.604 87.1 265.416 84.868 265.416 82.456 265.416 80.728 266.532 79.36 268.44L79 265.956 75.004 265.956 75.004 285 79.612 285 79.612 271.752C80.656 269.988 81.628 268.872 83.248 268.872 84.364 268.872 85.336 269.556 85.336 271.932L85.336 285 89.944 285 89.944 271.752C90.988 269.988 91.96 268.872 93.544 268.872 94.696 268.872 95.632 269.556 95.632 271.932L95.632 285 100.24 285 100.24 271.212C100.24 267.612 98.224 265.416 95.2 265.416ZM115.468 265.416C120.436 265.416 122.524 269.34 122.524 275.424 122.524 281.256 119.824 285.54 115 285.54 113.056 285.54 111.4 284.856 110.212 283.452L110.212 292.344 105.604 292.848 105.604 265.956 109.636 265.956 109.888 268.296C111.4 266.316 113.416 265.416 115.468 265.416ZM113.704 282.012C116.224 282.012 117.7 280.068 117.7 275.46 117.7 270.636 116.404 268.872 114.1 268.872 112.48 268.872 111.112 269.988 110.212 271.464L110.212 280.032C111.112 281.364 112.264 282.012 113.704 282.012ZM134.836 265.416C140.452 265.416 143.764 269.232 143.764 275.46 143.764 281.472 140.416 285.54 134.8 285.54 129.184 285.54 125.836 281.724 125.836 275.46 125.836 269.484 129.184 265.416 134.836 265.416ZM134.836 268.908C132.136 268.908 130.696 270.96 130.696 275.46 130.696 280.032 132.1 282.048 134.8 282.048 137.5 282.048 138.904 279.996 138.904 275.46 138.904 270.924 137.5 268.908 134.836 268.908ZM158.236 265.416C155.824 265.416 153.916 266.532 152.44 268.44L152.08 265.956 148.084 265.956 148.084 285 152.692 285 152.692 271.752C153.808 269.988 155.032 268.872 156.688 268.872 158.128 268.872 159.028 269.556 159.028 271.932L159.028 285 163.636 285 163.636 271.212C163.636 267.576 161.656 265.416 158.236 265.416ZM184.624 275.028C184.624 275.64 184.552 276.396 184.516 276.9L172.564 276.9C172.888 280.788 174.724 282.048 177.244 282.048 178.936 282.048 180.34 281.508 181.996 280.356L183.904 282.984C182.032 284.496 179.728 285.54 176.848 285.54 170.944 285.54 167.776 281.616 167.776 275.604 167.776 269.808 170.836 265.416 176.236 265.416 181.564 265.416 184.624 269.016 184.624 275.028ZM180.052 273.912 180.052 273.696C180.052 270.564 178.936 268.692 176.344 268.692 174.184 268.692 172.816 270.132 172.564 273.912ZM198.916 265.416C196.504 265.416 194.596 266.532 193.12 268.44L192.76 265.956 188.764 265.956 188.764 285 193.372 285 193.372 271.752C194.488 269.988 195.712 268.872 197.368 268.872 198.808 268.872 199.708 269.556 199.708 271.932L199.708 285 204.316 285 204.316 271.212C204.316 267.576 202.336 265.416 198.916 265.416ZM218.968 281.148C218.14 281.616 217.42 281.832 216.7 281.832 215.296 281.832 214.684 281.076 214.684 279.204L214.684 269.268 218.644 269.268 219.112 265.956 214.684 265.956 214.684 261.204 210.076 261.744 210.076 265.956 207.088 265.956 207.088 269.268 210.076 269.268 210.076 279.312C210.076 283.38 212.056 285.504 215.8 285.54 217.492 285.54 219.22 285.072 220.588 284.1ZM229.192 265.416C224.764 265.416 221.848 267.792 221.848 270.96 221.848 273.768 223.576 275.64 227.5 276.72 231.064 277.728 231.82 278.232 231.82 279.816 231.82 281.256 230.488 282.12 228.436 282.12 226.492 282.12 224.728 281.364 223.252 280.248L220.948 282.84C222.712 284.424 225.268 285.54 228.544 285.54 232.9 285.54 236.572 283.452 236.572 279.492 236.572 276.108 234.376 274.524 230.488 273.48 227.248 272.58 226.492 272.004 226.492 270.744 226.492 269.592 227.536 268.836 229.372 268.836 231.064 268.836 232.576 269.376 234.16 270.384L235.96 267.684C234.16 266.28 231.928 265.416 229.192 265.416ZM79.8 87.2 43.6 109.7 79.8 132.6 76.1 137.2 38.4 113.6 38.4 105.7 76.5 82.1M265.8 104.8 265.8 112.6 228.1 136.2 224.4 131.3 260.5 108.7 224.4 86 227.6 81.1" fill="#4A4A4A"/><text fill="#000000" font-family="AppleColorEmoji,Apple Color Emoji" font-size="100" letter-spacing="0.5" transform="translate(38 44)"><tspan x="70" y="100">💅</tspan></text></g></svg>