<svg width="2500" height="901" viewBox="-64 -42 972.6 331.6" xmlns="http://www.w3.org/2000/svg" xmlns:xlink="http://www.w3.org/1999/xlink" overflow="hidden"><g fill="#333333"><path d="M137.6 72.4 113.3 72.4 78.2 163.5 100.2 163.5 105.9 148 139.1 148 133.1 131 111.2 131 125.4 91.8 150.7 163.5 172.7 163.5ZM506.9 163.5 506.9 72.4 526.4 72.4 526.4 146.4 564.9 146.4 564.9 163.5ZM619.4 163.5 619.4 72.4 639 72.4 639 146.4 677.5 146.4 677.5 163.5ZM398.7 88.7C414.9 88.7 428 101.8 428 118 428 134.2 414.9 147.3 398.7 147.3 382.5 147.3 369.4 134.2 369.4 118 369.4 101.8 382.6 88.7 398.7 88.7M398.7 70.9C372.7 70.9 351.6 92 351.6 118 351.6 144 372.7 165.1 398.7 165.1 424.7 165.1 445.8 144 445.8 118 445.8 92 424.7 70.9 398.7 70.9ZM767.3 88.7C783.5 88.7 796.6 101.8 796.6 118 796.6 134.2 783.5 147.3 767.3 147.3 751.1 147.3 738 134.2 738 118 738 101.8 751.1 88.7 767.3 88.7M767.3 70.9C741.3 70.9 720.2 92 720.2 118 720.2 144 741.3 165.1 767.3 165.1 793.3 165.1 814.4 144 814.4 118 814.4 92 793.3 70.9 767.3 70.9ZM272 72.4 229.5 72.4 229.5 163.5 248.9 163.5 248.9 132.1 272 132.1C288.2 132.1 301.3 118.4 301.3 102.2 301.3 86.1 288.2 72.4 272 72.4ZM272 114.3 248.9 114.3 248.9 90.2 272 90.2C278.3 90.2 283.5 95.9 283.5 102.2 283.5 108.5 278.3 114.3 272 114.3Z"/><path d="M212.8 191.1C211.1 191.1 209.6 191.9 208.7 193.2 208.7 193.2 204.3 198.2 202 200.6 192 210.6 180.4 218.4 167.5 223.9 154.1 229.6 139.9 232.4 125.2 232.4 110.5 232.4 96.3 229.5 82.9 223.9 70 218.4 58.3 210.6 48.4 200.6 38.4 190.6 30.6 179 25.1 166.1 19.4 152.7 16.6 138.5 16.6 123.8 16.6 109.1 19.5 94.9 25.1 81.5 30.5 68.6 38.3 56.9 48.3 47 58.3 37 69.9 29.2 82.8 23.7 96.2 18 110.4 15.2 125.1 15.2 139.8 15.2 154 18.1 167.4 23.7 176.8 27.7 185.5 32.9 193.4 39.3 193 40.5 192.7 41.9 192.7 43.3 192.7 50.1 198.2 55.6 205 55.6 211.8 55.6 217.3 50.1 217.3 43.3 217.3 36.5 211.8 31 205 31 203.3 31 201.7 31.3 200.3 32 179.8 15.2 153.7 5.1 125.1 5.1 59.6 5.1 6.5 58.2 6.5 123.8 6.5 189.4 59.6 242.5 125.2 242.5 161.9 242.5 194.6 225.9 216.4 199.7 217.3 198.8 217.9 197.5 217.9 196.2 217.8 193.4 215.5 191.1 212.8 191.1Z"/></g><path d="M908.6 289.6-64 289.6-64-42 908.6-42Z" fill="none"/></svg>